<svg viewBox="0 0 1067 1067" xmlns="http://www.w3.org/2000/svg">
    <path fill="#C5C5C5" d="M1016.67 410.503h-92.704V314.85c0-94.937-77.253-172.159-172.103-172.159-94.945 0-172.175 77.222-172.175 172.159v95.652h-92.692V314.85c0-94.937-77.23-172.159-172.174-172.159-94.862 0-172.115 77.222-172.115 172.159v436.953c0 94.96 77.253 172.159 172.115 172.159h437.04c94.85 0 172.104-77.199 172.104-172.159V732.85c0-27.608-22.39-49.995-50-49.995h-386.97v-92.72h529.674v161.67c0 146.075-118.789 264.865-264.807 264.865H314.822c-146.03 0-264.82-118.79-264.82-264.866V314.851c0-146.005 118.79-264.854 264.82-264.854 71.292 0 136.135 28.395 183.81 74.361 19.361 18.68 50.036 18.68 69.409.012 47.687-45.978 112.518-74.373 183.822-74.373 146.018 0 264.807 118.85 264.807 264.854v95.652Z"/>
</svg>
